<svg xmlns="http://www.w3.org/2000/svg" viewBox="0 0 318.82 74.85">
    <g id="Layer_2" data-name="Layer 2">
        <g id="Layer_1-2" data-name="Layer 1">
            <path
                d="M6.48,40.92,5,40.88c-1.45,0-3-.15-4.79-.35a.09.09,0,0,1-.08-.06A.19.19,0,0,1,0,40.4s0-.13,0-.27c.14-.54.34-.82.59-.85A32.58,32.58,0,0,1,4.75,39l.84,0h5.5A6.54,6.54,0,0,1,12,39c.21.07.24.37.09.91s-.37.87-.59.92a1.24,1.24,0,0,1-.33,0h-.86Q8.49,40.92,6.48,40.92Z" />
            <path
                d="M54.66,5.4a.92.92,0,0,1,.62.25.76.76,0,0,1,.32.52,6.2,6.2,0,0,1,0,1.15,6.75,6.75,0,0,1-.16,1.1,2.55,2.55,0,0,0,0,.44A111.83,111.83,0,0,1,51.82,21.4a5.64,5.64,0,0,0-.18,1.42,3,3,0,0,1-.34,1.6,15.1,15.1,0,0,0-1.43,2.8q-3.63,10.34-7.8,20.41a175.44,175.44,0,0,1-7.91,16.92q-1.23,2.15-2.61,4.27a12.09,12.09,0,0,1-1.5,1.71,1.79,1.79,0,0,1-1.73.35,1.16,1.16,0,0,1-1-1.31,10,10,0,0,1,.54-2.42q2.57-7.08,5.66-13.91A189.77,189.77,0,0,1,46.8,28.32a21.17,21.17,0,0,0,2.13-4.75c.88-2.68,1.72-5.36,2.5-8.06s1.47-5.44,2-8.19A11.22,11.22,0,0,1,53.8,6,.85.85,0,0,1,54.66,5.4ZM31.07,65.88q3.68-6.69,6.67-13.62t5.52-14.13a.41.41,0,0,0-.08.13,1.12,1.12,0,0,0-.23.21c-.2.33-.38.66-.54,1q-3.31,6.12-6.13,12.47T30.91,64.74a2.38,2.38,0,0,1-.15.56A.9.9,0,0,0,31.07,65.88Zm102-61.48a.47.47,0,0,1-.16.34.91.91,0,0,1-.34.25.47.47,0,0,1-.35,0A6.28,6.28,0,0,0,130,4.13c-.76-.15-1.53-.27-2.29-.35a8.46,8.46,0,0,1-1.67-.19c-2-.3-4.1-.57-6.14-.79Q109.82,2,99.68,1.9q-9.78-.12-19.54.44Q69.08,2.91,58.07,4,48,4.9,37.91,6.17c-.42.08-.85.13-1.29.17Q32.77,6.87,29,7.47T21.28,8.9a5.12,5.12,0,0,1-.62.15c-1,.25-2,.52-3,.81A15.52,15.52,0,0,0,14.8,11a2,2,0,0,1-.43.16,1.81,1.81,0,0,1-.57,0,.68.68,0,0,1-.45-.31.58.58,0,0,1,0-.54,1,1,0,0,1,.4-.42A15.41,15.41,0,0,1,15.6,9a50.22,50.22,0,0,1,4.93-1.4c1.66-.38,3.33-.72,5-1q7.27-1.21,14.54-2.14c4.85-.63,9.72-1.17,14.63-1.65Q65,1.78,75.32,1.15q9-.57,18-.66,6.62-.07,13.21.12t13.19.79q6,.63,12,1.84a3.79,3.79,0,0,1,1,.39A.8.8,0,0,1,133.05,4.4Z" />
            <path
                d="M71.3,40.36a4.15,4.15,0,0,1-.67.52A16.17,16.17,0,0,1,68.55,42c-.62.26-1.33.54-2.17.83-1.24.37-2,.28-2.37-.25a2.81,2.81,0,0,1-.17-2.25,21.2,21.2,0,0,0,.58-3c.06-.63-.15-.86-.62-.66a12.39,12.39,0,0,0-2.56,2,22.72,22.72,0,0,0-4.44,5.1,2.09,2.09,0,0,1-.56.65,1.5,1.5,0,0,1-.86.25.87.87,0,0,1-.68-.25.64.64,0,0,1,0-.69c.71-1.54,1.44-3.07,2.17-4.61,1.26-2.63,2.51-5.27,3.73-7.89.92-2,1.82-3.92,2.71-5.9.55-1.15,1.09-2.3,1.6-3.46.05-.09.11-.19.17-.31s.11-.25.17-.37a4.74,4.74,0,0,1,.23-.44.66.66,0,0,1,.39-.33,1.78,1.78,0,0,1,.58-.15.93.93,0,0,1,.46,0c.17.12.26.23.27.35a.89.89,0,0,1-.06.38s0,.06,0,.12c-.24.7-.49,1.37-.75,2Q64,28.68,61.36,34l-.48.87c-.26.48-.51.94-.73,1.4s-.3.76-.23.91.44,0,1.07-.35a5.47,5.47,0,0,0,.52-.4q.75-.49,1.5-.93A2.57,2.57,0,0,1,64.42,35a1.76,1.76,0,0,1,2.11,1.71,4.41,4.41,0,0,1,0,1.45c-.1.48-.22.94-.36,1.4a3.24,3.24,0,0,1-.06.4c-.21.8-.16,1.27.17,1.39a2,2,0,0,0,1.37-.21,14.89,14.89,0,0,0,1.79-.89l1.11-.57a1.3,1.3,0,0,1,.71-.18c.29,0,.42.16.39.35A.9.9,0,0,1,71.3,40.36Z" />
            <path
                d="M86.08,41.84a9.89,9.89,0,0,1-2.39,1.75,10.5,10.5,0,0,1-2.32.94,7.9,7.9,0,0,1-1.89.25,6.86,6.86,0,0,1-2.9-.42q-2.16-.87-1.5-3.35A5.69,5.69,0,0,1,77.6,37.7a7,7,0,0,1,4-1.17h0a2.87,2.87,0,0,1,1,.08,1.45,1.45,0,0,1,1,.92A1.7,1.7,0,0,1,83.29,39a4,4,0,0,1-3.1,1.91,8.5,8.5,0,0,1-2.53-.12.53.53,0,0,0-.41.14.63.63,0,0,0-.21.38c-.24,1,.07,1.68.94,2a5.19,5.19,0,0,0,3.35,0,9.64,9.64,0,0,0,3.79-2.36c1.21-1.15,1.9-1.68,2.09-1.6s.25.29.16.67A4.58,4.58,0,0,1,86.08,41.84ZM78.48,39a.61.61,0,0,0-.15.27c0,.1,0,.18.13.27a2.1,2.1,0,0,0,1.35.27A2.29,2.29,0,0,0,81,39.22a1.29,1.29,0,0,0,.46-1.11.41.41,0,0,0-.27-.31.7.7,0,0,0-.38,0A4.62,4.62,0,0,0,78.48,39Z" />
            <path
                d="M94.63,44.47h0c-1.74,0-2.88-.41-3.42-1.15a2.84,2.84,0,0,1,.06-3,9.25,9.25,0,0,1,1.9-2.48,3.8,3.8,0,0,1,.81-.56,2,2,0,0,1,.92-.21,1.25,1.25,0,0,1,.71.11l.25.08a2,2,0,0,0,.58-.19.82.82,0,0,1,.21-.1,2.86,2.86,0,0,1,1.25-.19h.54a2.24,2.24,0,0,1,2,2.65,3.63,3.63,0,0,1-.4,1.16q-2.06,3.69-5.25,3.86Zm2.83-6.4a3.69,3.69,0,0,0-2.52.81,5.72,5.72,0,0,0-1.62,2A2.58,2.58,0,0,0,93,42.72q.25.73,1.5.39A5.36,5.36,0,0,0,97,41.53a5.16,5.16,0,0,0,1.32-2.25C98.48,38.57,98.2,38.17,97.46,38.07Z" />
            <path
                d="M212.61,26.2a1.18,1.18,0,0,1,.67.35.44.44,0,0,1,.12.52.7.7,0,0,1-.37.29,1,1,0,0,1-.42,0c-.2,0-.39,0-.6,0a99.94,99.94,0,0,0-11.27.5q-7,.61-11.27,1.19-3.32.43-6.63.94a.63.63,0,0,0-.19,0,5.85,5.85,0,0,0-2.52,1,87,87,0,0,1-8.69,5.19q-4.49,2.31-9.14,4.31a150.15,150.15,0,0,1-15.44,5.83,3.5,3.5,0,0,0-2.37,2q-3.51,7-7.3,13.67-3.37,5.94-6.47,12a.06.06,0,0,1-.05.06,1.23,1.23,0,0,1-.33.52.91.91,0,0,1-.75.21.9.9,0,0,1-.46,0,.74.74,0,0,1-.48-.73,3.16,3.16,0,0,1,.54-1.6.14.14,0,0,0,.05-.09q3.13-5.64,6.18-11.29t5.9-11.46l.46-1a4,4,0,0,1,.21-.52l-.5-.12c-.31.07-.6.16-.88.25a2.26,2.26,0,0,0-.31.1q-5.51,1.59-11.13,2.69c-2.6.46-5.2.78-7.83,1a1.45,1.45,0,0,1-.35,0,7,7,0,0,1-.8,0,9,9,0,0,1-2.93-.48A1.82,1.82,0,0,1,116,50.4a2.05,2.05,0,0,1,.5-1.81,8.17,8.17,0,0,1,2.33-1.87,33.53,33.53,0,0,1,6.37-3.11q8.92-3.37,18.07-5.94c.33-.1.68-.2,1.06-.29a9.83,9.83,0,0,0,2.19-.68A3.14,3.14,0,0,0,148,35.11q1.93-4.44,3.71-8.89t3.33-9.07a.19.19,0,0,1,0-.1,6.86,6.86,0,0,1,.63-1.58.72.72,0,0,1,.39-.34,1.12,1.12,0,0,1,.54-.06,1.09,1.09,0,0,1,.44,0,.87.87,0,0,1,.67.79,6.58,6.58,0,0,1-.44,2.36.26.26,0,0,1,0,.1q-1.92,5.9-4.31,11.6c-.42,1-.85,2.08-1.3,3.11-.16.37-.32.76-.47,1.14a2.12,2.12,0,0,0-.28,1,.34.34,0,0,0,.38.25,2.77,2.77,0,0,0,.77-.18l.29-.09,3.48-.87c2.09-.51,4.2-1,6.31-1.57,5.2-1.21,10.43-2.27,15.69-3.14a5.09,5.09,0,0,0,2.46-1.08,37.64,37.64,0,0,0,4.44-4,23,23,0,0,0,3.64-4.94,10.18,10.18,0,0,0,1.29-5.46,9,9,0,0,0-2.56-5.54,14.68,14.68,0,0,0-3.56-2.75,34.29,34.29,0,0,0-10.15-3.34A76.05,76.05,0,0,0,160.76,1.3,113.92,113.92,0,0,0,147.22,2a117.56,117.56,0,0,0-12.69,2.08,68.62,68.62,0,0,0-10.15,3,41.58,41.58,0,0,0-7,3.58,21.18,21.18,0,0,0-2.52,1.8,11.83,11.83,0,0,0-2.1,2.25,1.17,1.17,0,0,1-1,.58h-.35a1.61,1.61,0,0,1-.44-.06.66.66,0,0,1-.36-.25,1,1,0,0,1-.06-.34,2.48,2.48,0,0,1,0-.29,4.43,4.43,0,0,1,.84-1.25c.35-.37.7-.73,1.06-1.06a25.87,25.87,0,0,1,3-2.21c1-.65,2.08-1.26,3.16-1.83a51.13,51.13,0,0,1,10.65-4,116,116,0,0,1,14.25-2.86A125.76,125.76,0,0,1,159.22,0a83.44,83.44,0,0,1,14.75,1,36.22,36.22,0,0,1,11.72,3.81,15.56,15.56,0,0,1,3.88,3,10.28,10.28,0,0,1,2.73,5.38,9.79,9.79,0,0,1-.73,5.14,19.42,19.42,0,0,1-2.94,4.75c-1.24,1.5-2.51,2.91-3.81,4.21a3.27,3.27,0,0,0-.48.5.63.63,0,0,0-.19.5c0,.13.22.16.59.11q6.6-1.06,13.16-1.61t13.21-.75h.4A6.89,6.89,0,0,1,212.61,26.2ZM143.44,45.26a6.82,6.82,0,0,1,.55-1q.54-1.07,1.14-2.34a16.75,16.75,0,0,0,.88-2.25c.19-.63.1-1-.27-1a3.42,3.42,0,0,0-.65.15.63.63,0,0,0-.21,0c-.83.27-1.68.52-2.52.75-2,.58-4,1.2-6,1.85l-.31.11q-5.43,1.66-10.69,3.83A29.8,29.8,0,0,0,120.26,48a4.19,4.19,0,0,0-1.5,1.37.74.74,0,0,0-.13.65.81.81,0,0,0,.48.46,5.64,5.64,0,0,0,1.69.27,12.58,12.58,0,0,0,1.5-.09h0A59.56,59.56,0,0,0,130,49.4q6-1.3,11.83-3.08a.22.22,0,0,1,.12-.06,3.52,3.52,0,0,0,.86-.31A1.54,1.54,0,0,0,143.44,45.26Zm3.34-.71a79.73,79.73,0,0,0,9.62-3.4q6.1-2.49,11.71-5.27a39.21,39.21,0,0,0,7.67-4.58h-.61q-12.33,2.43-24.41,5.81a2.12,2.12,0,0,0-1.48,1.29l-1.44,3.11c-.37.76-.74,1.54-1.1,2.33a.8.8,0,0,0-.11.36A.41.41,0,0,0,146.78,44.55Z" />
            <path
                d="M190,39.63a39.46,39.46,0,0,0-4.06,1.73,2.37,2.37,0,0,0-1.06.73,1.58,1.58,0,0,0,.2,1.08s0,.07.07.11a6.19,6.19,0,0,1,.45,2q.13,2-3.5,2.87c-2.4.54-4,.56-4.83,0a1.45,1.45,0,0,1-.75-1.93,5.74,5.74,0,0,1,2.46-2.4c1.32-.82,2.2-1.4,2.65-1.75a1,1,0,0,0,.41-1.21l-.21-.46q-.23-.56-.48-1.14a4.68,4.68,0,0,1-.39-2.11,2.67,2.67,0,0,1,.75-1.75,3.26,3.26,0,0,1,2.21-.75,3.69,3.69,0,0,1,1.48.23,2.09,2.09,0,0,1,1.06,1,.58.58,0,0,1-.19.88.69.69,0,0,1-.73.06,2.13,2.13,0,0,1-.5-.31v0l-.19-.15a.92.92,0,0,0-.22-.25,1.06,1.06,0,0,0-.94-.19,1.09,1.09,0,0,0-.71.71,2.79,2.79,0,0,0-.17.94,3.65,3.65,0,0,0,.27,1.14l.3.63a6.18,6.18,0,0,0,.47,1.08.48.48,0,0,0,.48.25c.2,0,1.89-.63,5.09-1.81C190.06,38.58,190.26,38.86,190,39.63Zm-7.73,6.84a1.4,1.4,0,0,0,1-1.69,1.54,1.54,0,0,0,0-.19,2.83,2.83,0,0,0-.29-1c-.14-.25-.46-.24-1,0A20.24,20.24,0,0,0,178.57,46l-.18.23,0,.06a.32.32,0,0,0,0,.33c.05.12.15.17.32.17A7,7,0,0,0,182.24,46.47Z" />
            <path
                d="M207.68,39.61c.28.16.3.54.07,1.15A12.46,12.46,0,0,1,206.64,42a8.88,8.88,0,0,1-1.29,1.06s0,0,0,0a5.87,5.87,0,0,1-1,.56c-2.84,1-4.29.43-4.36-1.81a23.59,23.59,0,0,1-2.31,1.86,5.49,5.49,0,0,1-3.06.75,2,2,0,0,1-1.65-.75A1.86,1.86,0,0,1,193,41.9a9.84,9.84,0,0,1,2.23-3.2A13.63,13.63,0,0,1,199,36.17a4,4,0,0,1,2.31-.43,1.5,1.5,0,0,1,1.48,1.37.69.69,0,0,1-.21.71.86.86,0,0,1-.92.17l-.08,0a.14.14,0,0,1-.1-.07c-.35-.46-.7-.66-1.05-.58a3.54,3.54,0,0,0-1.12.46,9.84,9.84,0,0,0-4.08,4.48.57.57,0,0,0-.11.29.25.25,0,0,0,.11.23,1,1,0,0,0,.7,0,3.36,3.36,0,0,0,.8-.44c.26-.21.48-.38.66-.5a.32.32,0,0,1,0-.06c.88-.72,1.73-1.47,2.57-2.23a2,2,0,0,1,1.37-.65c.79,0,1.11.35,1,1-.07.27-.15.54-.23.8-.31,1.12-.32,1.79,0,2a1.54,1.54,0,0,0,1.31,0,5.22,5.22,0,0,0,1.77-1.13,19.12,19.12,0,0,0,1.5-1.52C207.06,39.59,207.4,39.45,207.68,39.61Z" />
            <path
                d="M220.7,40.17a2,2,0,0,1,1-.64c.26-.05.42,0,.5.12s0,.31-.15.52a17.89,17.89,0,0,1-3.52,3.28,8.5,8.5,0,0,1-4,1.6c-1.37.14-2.21-.61-2.5-2.27s.78-4.94,3-10,3.93-9.12,5.21-12.33a2.29,2.29,0,0,1,.48-.75.9.9,0,0,1,1-.19,1.28,1.28,0,0,1,.39.29.82.82,0,0,1,.13.69q-8.46,20-8.19,21.79c.18,1.17.93,1.46,2.25.88a12.94,12.94,0,0,0,3.08-1.82C220.06,40.77,220.52,40.37,220.7,40.17Z" />
            <path
                d="M235.1,40.17a2,2,0,0,1,1-.64c.26-.05.42,0,.5.12s0,.31-.15.52a17.89,17.89,0,0,1-3.52,3.28,8.5,8.5,0,0,1-4,1.6c-1.37.14-2.21-.61-2.5-2.27s.78-4.94,3-10,3.93-9.12,5.21-12.33a2.29,2.29,0,0,1,.48-.75.9.9,0,0,1,1-.19,1.28,1.28,0,0,1,.39.29.82.82,0,0,1,.13.69q-8.46,20-8.19,21.79c.18,1.17.93,1.46,2.25.88a12.94,12.94,0,0,0,3.08-1.82C234.46,40.77,234.92,40.37,235.1,40.17Z" />
            <path
                d="M248,41.17a13.44,13.44,0,0,1-2.27,2.09,7.61,7.61,0,0,1-2.94,1.27,3.49,3.49,0,0,1-2.54-.23c-.61-.39-.74-1.24-.38-2.56a17.47,17.47,0,0,1,2-3.88,1.65,1.65,0,0,1,.83-.54.84.84,0,0,1,.69.15.52.52,0,0,1,.23.54c-.18.43-.39.86-.6,1.29s-.35.71-.42.83a8.58,8.58,0,0,0-.88,2.4c0,.47.63.5,1.9.08a9.9,9.9,0,0,0,3.71-2.29c1.21-1.11,1.78-1.44,1.73-1A3.88,3.88,0,0,1,248,41.17Zm-3.13-6a2.12,2.12,0,0,1-.37.16,2.32,2.32,0,0,1-.59.15.63.63,0,0,1-.5-.11c-.11-.09-.11-.28,0-.56a10.86,10.86,0,0,1,.61-1.31,12.88,12.88,0,0,1,.81-1.25,1,1,0,0,1,.69-.33.82.82,0,0,1,.62.2.55.55,0,0,1,.15.61A5.51,5.51,0,0,1,244.83,35.2Z" />
            <path
                d="M269.16,39.3q.38.09.39.27l0,.17a8.07,8.07,0,0,1-1,1.37,9.65,9.65,0,0,1-3,2.25,3.59,3.59,0,0,1-1.86.5c-1.59,0-2.32-.74-2.18-2.31a6.64,6.64,0,0,1,.23-1,3.45,3.45,0,0,0,.12-.46c.15-.58.19-.9.13-1s-.25.1-.57.48l-.23.23c-.47.59-.95,1.15-1.45,1.69a13.78,13.78,0,0,1-3.15,2.65,4.65,4.65,0,0,1-2.23.66,1.84,1.84,0,0,1-2.17-1.77,4.6,4.6,0,0,1,.09-1.48A7.55,7.55,0,0,1,255.49,37a7.27,7.27,0,0,1,5.4-1.13,1,1,0,0,0,1.25-.48l.33-.54L264.08,32l3-5.46c.82-1.44,1.64-2.9,2.44-4.35a12.45,12.45,0,0,1,.79-1.32.74.74,0,0,1,.48-.37,3.13,3.13,0,0,1,.63-.06h.14a.89.89,0,0,1,.59.18.4.4,0,0,1,.08.48,13,13,0,0,1-.54,1.44q-1.65,3.27-3.11,6.65T265.68,36l-.94,2.35a19.51,19.51,0,0,0-1,2.81,2,2,0,0,0-.12.65.65.65,0,0,0,.31.54.41.41,0,0,0,.4,0l.48-.18a.18.18,0,0,1,.1-.09,15.62,15.62,0,0,0,3.1-2.37,3.89,3.89,0,0,1,.5-.38A.75.75,0,0,1,269.16,39.3Zm-8.81-1.17a.77.77,0,0,0,.1-.6.64.64,0,0,0-.4-.44,1.73,1.73,0,0,0-1.41-.1,6.2,6.2,0,0,0-3.09,2.12,5.91,5.91,0,0,0-1.33,3.42c0,.06,0,.1,0,.12V43c.11.57.47.68,1.06.33a9.83,9.83,0,0,0,2-1.71c.75-.79,1.41-1.54,2-2.25S260.26,38.25,260.35,38.13Z" />
            <path
                d="M286.68,39.61c.28.16.3.54.06,1.15a11.27,11.27,0,0,1-1.1,1.27,8.88,8.88,0,0,1-1.29,1.06s0,0,0,0a5.87,5.87,0,0,1-1,.56c-2.84,1-4.29.43-4.36-1.81a23.59,23.59,0,0,1-2.31,1.86,5.49,5.49,0,0,1-3.06.75,2,2,0,0,1-1.65-.75A1.88,1.88,0,0,1,272,41.9a10.16,10.16,0,0,1,2.23-3.2A13.78,13.78,0,0,1,278,36.17a4.08,4.08,0,0,1,2.32-.43,1.5,1.5,0,0,1,1.48,1.37.71.71,0,0,1-.21.71.86.86,0,0,1-.92.17l-.08,0a.19.19,0,0,1-.11-.07c-.34-.46-.69-.66-1-.58a3.54,3.54,0,0,0-1.12.46,9.86,9.86,0,0,0-4.09,4.48.67.67,0,0,0-.1.29.26.26,0,0,0,.1.23,1,1,0,0,0,.71,0,3.13,3.13,0,0,0,.79-.44c.26-.21.49-.38.67-.5l0-.06c.88-.72,1.73-1.47,2.56-2.23a2.09,2.09,0,0,1,1.38-.65c.79,0,1.11.35,1,1-.07.27-.15.54-.23.8-.31,1.12-.32,1.79,0,2a1.54,1.54,0,0,0,1.31,0,5.22,5.22,0,0,0,1.77-1.13c.59-.55,1.09-1.06,1.5-1.52S286.4,39.45,286.68,39.61Z" />
            <path
                d="M299.7,39.63a38.49,38.49,0,0,0-4.06,1.73,2.49,2.49,0,0,0-1.07.73,1.67,1.67,0,0,0,.21,1.08.15.15,0,0,0,.06.11,6.21,6.21,0,0,1,.46,2q.13,2-3.5,2.87c-2.4.54-4,.56-4.83,0a1.45,1.45,0,0,1-.75-1.93,5.74,5.74,0,0,1,2.46-2.4c1.32-.82,2.2-1.4,2.64-1.75a1,1,0,0,0,.42-1.21l-.21-.46c-.16-.37-.31-.75-.48-1.14a4.54,4.54,0,0,1-.39-2.11,2.67,2.67,0,0,1,.75-1.75,3.21,3.21,0,0,1,2.2-.75,3.63,3.63,0,0,1,1.48.23,2.07,2.07,0,0,1,1.07,1,.59.59,0,0,1-.19.88.69.69,0,0,1-.73.06,2,2,0,0,1-.5-.31v0l-.19-.15a.8.8,0,0,0-.23-.25,1,1,0,0,0-.93-.19,1.07,1.07,0,0,0-.71.71,2.56,2.56,0,0,0-.17.94,3.4,3.4,0,0,0,.27,1.14c.11.23.21.44.29.63a6.84,6.84,0,0,0,.48,1.08.48.48,0,0,0,.48.25c.19,0,1.89-.63,5.08-1.81C299.79,38.58,300,38.86,299.7,39.63ZM292,46.47a1.4,1.4,0,0,0,1-1.69,1.54,1.54,0,0,0,0-.19,3,3,0,0,0-.29-1c-.14-.25-.46-.24-1,0A19.85,19.85,0,0,0,288.3,46l-.19.23,0,.06a.35.35,0,0,0,0,.33c0,.12.15.17.31.17A7.06,7.06,0,0,0,292,46.47Z" />
            <path
                d="M313.14,40.92l-1.46,0c-1.46,0-3.06-.15-4.79-.35a.09.09,0,0,1-.08-.06.16.16,0,0,1-.13-.07s0-.13,0-.27c.14-.54.33-.82.58-.85a32.73,32.73,0,0,1,4.15-.31l.83,0h5.5a6.56,6.56,0,0,1,.9.07c.21.07.23.37.08.91s-.36.87-.58.92a1.35,1.35,0,0,1-.33,0H317Q315.14,40.92,313.14,40.92Z" />
        </g>
    </g>
</svg>