<svg xmlns="http://www.w3.org/2000/svg" xmlns:xlink="http://www.w3.org/1999/xlink" width="134.189" height="121" viewBox="0 0 134.189 121">
  <defs>
    <linearGradient id="linear-gradient" x1="0.89" y1="0.175" x2="0.123" y2="0.78" gradientUnits="objectBoundingBox">
      <stop offset="0" stop-color="#6dd5fa"/>
      <stop offset="1" stop-color="#2980b9"/>
    </linearGradient>
  </defs>
  <g id="Group_2" data-name="Group 2" transform="translate(-1950 -635)">
    <path id="Exclusion_1" data-name="Exclusion 1" d="M60.5,121A60.516,60.516,0,0,1,36.95,4.754a60.449,60.449,0,0,1,65.924,12.564,35.744,35.744,0,0,0-7.58-1.962,82.354,82.354,0,0,0-12.8-1c-.575,0-1.158.006-1.734.018a124.389,124.389,0,0,0-15.482,1.123,114.6,114.6,0,0,0-14.042,2.818,50.494,50.494,0,0,0-10.5,3.942c-1.217.643-2.236,1.233-3.114,1.8a25.588,25.588,0,0,0-2.956,2.178c-.374.342-.738.719-1.045,1.044a4.355,4.355,0,0,0-.828,1.232,2.546,2.546,0,0,0,0,.286.962.962,0,0,0,.059.335.654.654,0,0,0,.355.247,1.573,1.573,0,0,0,.424.059h.354a1.159,1.159,0,0,0,.986-.571,11.654,11.654,0,0,1,2.069-2.217,20.833,20.833,0,0,1,2.484-1.774,41,41,0,0,1,6.9-3.528,67.769,67.769,0,0,1,10-2.956,116.275,116.275,0,0,1,12.505-2.049,112.623,112.623,0,0,1,12.459-.694c.294,0,.591,0,.884,0a75.171,75.171,0,0,1,12.446,1.143,33.759,33.759,0,0,1,10,3.291A14.56,14.56,0,0,1,106.6,21.32c1.312,1.542,2.56,3.168,3.71,4.832a8.926,8.926,0,0,0-2.078-3.356A14.505,14.505,0,0,0,106.6,21.32c-1.172-1.378-2.425-2.725-3.727-4a35.843,35.843,0,0,1,3.969,1.792,15.324,15.324,0,0,1,3.824,2.957,10.1,10.1,0,0,1,2.69,5.3,9.618,9.618,0,0,1-.166,3.378c-.888-1.566-1.857-3.112-2.881-4.6a8.872,8.872,0,0,1,.445,2.1,10.021,10.021,0,0,1-1.271,5.381,22.847,22.847,0,0,1-2.124,3.2c-1.512-.077-3.065-.139-4.617-.185-3.155-.091-6.355-.136-9.513-.136-1.162,0-2.341.006-3.5.019-4.145.042-8.324.162-12.422.356.53-1.467,1.046-2.969,1.533-4.466a.262.262,0,0,0,0-.1A6.473,6.473,0,0,0,79.271,30a.855.855,0,0,0-.661-.779,4.312,4.312,0,0,1-.581-.01,1.106,1.106,0,0,0-.385.069.708.708,0,0,0-.384.335,6.794,6.794,0,0,0-.621,1.557.185.185,0,0,0,0,.1c-.645,1.923-1.334,3.86-2.048,5.758-.889.05-1.741.1-2.6.155-6.74.411-13.577.961-20.32,1.635-5.176.506-9.892,1.038-14.417,1.626-4.751.608-9.572,1.317-14.328,2.109-1.568.263-3.179.585-4.927.986a49.637,49.637,0,0,0-4.858,1.38,15.267,15.267,0,0,0-1.823.877.983.983,0,0,0-.393.414.57.57,0,0,0,0,.533.668.668,0,0,0,.443.305,1.78,1.78,0,0,0,.562,0,1.964,1.964,0,0,0,.424-.157,15.314,15.314,0,0,1,2.818-1.123c1-.289,1.991-.558,2.957-.8a5.081,5.081,0,0,0,.61-.149c2.591-.544,5.151-1.017,7.608-1.408,2.475-.394,5-.769,7.51-1.114a12.6,12.6,0,0,0,1.271-.167c6.6-.83,13.283-1.55,19.867-2.138,6.3-.623,12.709-1.124,19.04-1.488-.219.568-.439,1.125-.67,1.7-1.165,2.914-2.4,5.861-3.656,8.761a3.1,3.1,0,0,1-1.459,1.567,9.69,9.69,0,0,1-2.158.671c-.4.094-.768.2-1.044.285-5.388,1.514-10.789,3.263-16.054,5.2A110.872,110.872,0,0,0,52.4,44.782a2.5,2.5,0,0,1,0-.434,6.692,6.692,0,0,0,.158-1.084,6.118,6.118,0,0,0,0-1.133.748.748,0,0,0-.316-.512.9.9,0,0,0-.611-.247h-.047a.832.832,0,0,0-.8.593,10.924,10.924,0,0,0-.365,1.3c-.488,2.531-1.133,5.171-1.971,8.071-.572,1.98-1.2,4.034-1.922,6.278a33.2,33.2,0,0,0-5.567,2.8,8.012,8.012,0,0,0-2.3,1.843,2.023,2.023,0,0,0-.492,1.784,1.791,1.791,0,0,0,1.241,1.113,8.856,8.856,0,0,0,2.863.473H42.3c.135.007.271.011.4.011h.137A187.554,187.554,0,0,0,30.8,88.516c-2.022,4.47-3.9,9.082-5.577,13.708a9.851,9.851,0,0,0-.532,2.385,1.142,1.142,0,0,0,.986,1.291,1.757,1.757,0,0,0,1.7-.345,11.89,11.89,0,0,0,1.478-1.686c.9-1.374,1.761-2.79,2.572-4.208a173.609,173.609,0,0,0,7.795-16.673c2.392-5.777,4.68-11.7,6.8-17.616,1.761-.2,3.484-.444,5.124-.733,3.674-.719,7.364-1.611,10.968-2.651a2.245,2.245,0,0,1,.305-.1c.253-.081.549-.174.868-.247l.492.118a3.96,3.96,0,0,0-.207.513l-.454.986c-1.868,3.809-3.824,7.608-5.814,11.293-1.979,3.666-4.027,7.409-6.089,11.126a.139.139,0,0,1-.049.088,3.117,3.117,0,0,0-.533,1.577.727.727,0,0,0,.473.719,3.528,3.528,0,0,1,.605.013.894.894,0,0,0,.587-.22,1.208,1.208,0,0,0,.325-.512.059.059,0,0,0,.049-.059c2.024-3.955,4.169-7.934,6.376-11.825,2.475-4.355,4.9-8.887,7.195-13.471a3.467,3.467,0,0,1,2.335-1.971,148.456,148.456,0,0,0,15.215-5.745c3.041-1.308,6.072-2.737,9.007-4.247a86.17,86.17,0,0,0,8.564-5.115,5.8,5.8,0,0,1,2.484-.985.586.586,0,0,1,.093-.007.6.6,0,0,1,.094.007c2.163-.333,4.362-.645,6.533-.926,2.04-.278,4.6-.564,7.6-.852-.13-.407-.271-.837-.422-1.276.378-.034.759-.068,1.132-.1,2.486-.208,5.036-.381,7.58-.515-.183-.051-.379-.1-.583-.135-.767-.152-1.526-.268-2.256-.346a8.329,8.329,0,0,1-1.646-.187c-1.608-.241-3.265-.461-4.926-.653.249.652.484,1.3.7,1.934-3.917.355-7.9.855-11.836,1.488a2.192,2.192,0,0,1-.288.023c-.195,0-.294-.044-.294-.131a.623.623,0,0,1,.187-.493,3.185,3.185,0,0,1,.473-.492c.906-.907,1.823-1.894,2.725-2.935,2.4.13,4.823.292,7.208.481.37.04.748.082,1.123.126-.175-.459-.365-.939-.564-1.424h0c-.211-.025-.438-.05-.736-.081-1.942-.176-3.923-.328-5.887-.452a19.215,19.215,0,0,0,2.784-4.544,9.7,9.7,0,0,0,.552-1.683,60.192,60.192,0,0,1,3.287,6.758h0c3.683.409,7.413.993,11.089,1.734a3.766,3.766,0,0,1,.986.384.782.782,0,0,1,.322.514c1.053-.044,2.068-.081,3.019-.11h.393a6.8,6.8,0,0,1,1.084.158,1.174,1.174,0,0,1,.661.345.435.435,0,0,1,.118.513.69.69,0,0,1-.365.285.973.973,0,0,1-.414,0h-.591c-.4,0-.8-.007-1.194-.007a98.824,98.824,0,0,0-9.912.5c-1.23.107-2.41.215-3.509.32A60.48,60.48,0,0,1,60.5,121ZM28.382,100.972h0a.884.884,0,0,1-.305-.571,2.349,2.349,0,0,0,.149-.552c1.666-4.214,3.446-8.458,5.291-12.614s3.88-8.293,6.041-12.289a10.75,10.75,0,0,1,.533-.985,1.069,1.069,0,0,1,.226-.207.408.408,0,0,1,.079-.128c-1.66,4.724-3.491,9.408-5.44,13.924C33,92.084,30.787,96.6,28.383,100.971ZM42.9,64.382a5.556,5.556,0,0,1-1.665-.266.8.8,0,0,1-.473-.453.734.734,0,0,1,.129-.641,4.147,4.147,0,0,1,1.478-1.35,29.629,29.629,0,0,1,3.466-1.923,20.9,20.9,0,0,1-1.949,4.209l-.169.268-.085.134C43.384,64.375,43.138,64.382,42.9,64.382Zm3.6-.333v0c.139-.391.277-.781.414-1.173a14.822,14.822,0,0,1,1.409-2.759,2.958,2.958,0,0,0,.336-1.557c3.036-1.212,6.155-2.309,9.272-3.262l.306-.109c2.043-.664,4.032-1.278,5.912-1.823.888-.243,1.723-.492,2.483-.74a.621.621,0,0,1,.208,0,3.327,3.327,0,0,1,.64-.148.325.325,0,0,1,.277.124,1.048,1.048,0,0,1-.011.862,16.657,16.657,0,0,1-.868,2.218c-.393.831-.771,1.607-1.123,2.306a6.738,6.738,0,0,0-.542.985,1.505,1.505,0,0,1-.621.68,3.465,3.465,0,0,1-.848.306.214.214,0,0,0-.118.059c-3.811,1.164-7.733,2.185-11.658,3.036-1.8.417-3.64.752-5.469,1ZM68.5,58.272h0a.4.4,0,0,1-.147-.344.788.788,0,0,1,.108-.355c.334-.732.7-1.5,1.085-2.3l1.418-3.065a2.091,2.091,0,0,1,1.459-1.271c7.9-2.211,16-4.137,24.054-5.726h.6a38.686,38.686,0,0,1-7.558,4.514c-3.672,1.819-7.554,3.567-11.54,5.194a78.812,78.812,0,0,1-9.479,3.35Zm4.393-8.993a.334.334,0,0,1-.323-.25,2.092,2.092,0,0,1,.276-.986c.157-.4.313-.777.463-1.123.284-.649.561-1.322.829-1.973.149-.362.3-.736.453-1.093.765-1.825,1.5-3.676,2.176-5.5,5.252-.3,10.581-.454,15.84-.454,1.123,0,2.263.007,3.388.021,3.386.034,6.814.129,10.189.281l-.01.013c-.1.1-.189.2-.276.288a37.273,37.273,0,0,1-4.376,3.942A5.018,5.018,0,0,1,99.1,43.511c-4.973.823-10.175,1.864-15.462,3.094-1.6.432-3.222.823-4.791,1.2l-.017,0-1.41.341-3.429.858L73.7,49.1a2.716,2.716,0,0,1-.759.177A.337.337,0,0,1,72.893,49.279Z" transform="translate(1950 635)" fill="url(#linear-gradient)"/>
  </g>
</svg>
